<mxfile host="app.diagrams.net" modified="2023-07-31T07:41:25.736Z" agent="Mozilla/5.0 (Windows NT 10.0; Win64; x64) AppleWebKit/537.36 (KHTML, like Gecko) Chrome/115.0.0.0 Safari/537.36" etag="tjaPy4ziV4vZWbzzpsIE" version="21.6.6" type="device">
  <diagram name="Page-1" id="pnsD3PIrC_GAVa5wl_av">
    <mxGraphModel dx="1805" dy="840" grid="1" gridSize="10" guides="1" tooltips="1" connect="1" arrows="1" fold="1" page="1" pageScale="1" pageWidth="1169" pageHeight="827" math="0" shadow="0">
      <root>
        <mxCell id="0" />
        <mxCell id="1" parent="0" />
        <mxCell id="CNnCSRYlt05HZWI-I3dU-10" value="Branch" style="whiteSpace=wrap;html=1;" parent="1" vertex="1">
          <mxGeometry x="240" y="160" width="120" height="40" as="geometry" />
        </mxCell>
        <mxCell id="CNnCSRYlt05HZWI-I3dU-11" value="&lt;span style=&quot;font-weight: 400;&quot;&gt;branchName&lt;/span&gt;" style="ellipse;whiteSpace=wrap;html=1;fontStyle=5" parent="1" vertex="1">
          <mxGeometry x="82" y="80" width="120" height="40" as="geometry" />
        </mxCell>
        <mxCell id="CNnCSRYlt05HZWI-I3dU-13" value="branchCity" style="ellipse;whiteSpace=wrap;html=1;" parent="1" vertex="1">
          <mxGeometry x="80" y="130" width="120" height="44" as="geometry" />
        </mxCell>
        <mxCell id="CNnCSRYlt05HZWI-I3dU-14" value="" style="endArrow=none;html=1;rounded=0;exitX=0;exitY=0;exitDx=0;exitDy=0;entryX=1;entryY=0.5;entryDx=0;entryDy=0;" parent="1" source="CNnCSRYlt05HZWI-I3dU-10" target="CNnCSRYlt05HZWI-I3dU-13" edge="1">
          <mxGeometry relative="1" as="geometry">
            <mxPoint x="360" y="156" as="sourcePoint" />
            <mxPoint x="220" y="180" as="targetPoint" />
          </mxGeometry>
        </mxCell>
        <mxCell id="CNnCSRYlt05HZWI-I3dU-15" value="" style="endArrow=none;html=1;rounded=0;entryX=1;entryY=0.5;entryDx=0;entryDy=0;exitX=0;exitY=0;exitDx=0;exitDy=0;" parent="1" source="CNnCSRYlt05HZWI-I3dU-10" target="CNnCSRYlt05HZWI-I3dU-11" edge="1">
          <mxGeometry relative="1" as="geometry">
            <mxPoint x="360" y="75" as="sourcePoint" />
            <mxPoint x="430" y="65" as="targetPoint" />
          </mxGeometry>
        </mxCell>
        <mxCell id="CNnCSRYlt05HZWI-I3dU-17" value="Account" style="whiteSpace=wrap;html=1;" parent="1" vertex="1">
          <mxGeometry x="641" y="161" width="120" height="40" as="geometry" />
        </mxCell>
        <mxCell id="CNnCSRYlt05HZWI-I3dU-18" value="accNO" style="ellipse;whiteSpace=wrap;html=1;fontStyle=4" parent="1" vertex="1">
          <mxGeometry x="581" y="80" width="120" height="40" as="geometry" />
        </mxCell>
        <mxCell id="CNnCSRYlt05HZWI-I3dU-21" value="" style="endArrow=none;html=1;rounded=0;exitX=0.5;exitY=1;exitDx=0;exitDy=0;entryX=0;entryY=0;entryDx=0;entryDy=0;" parent="1" source="CNnCSRYlt05HZWI-I3dU-18" target="CNnCSRYlt05HZWI-I3dU-17" edge="1">
          <mxGeometry relative="1" as="geometry">
            <mxPoint x="670" y="118" as="sourcePoint" />
            <mxPoint x="672" y="73.41" as="targetPoint" />
          </mxGeometry>
        </mxCell>
        <mxCell id="CNnCSRYlt05HZWI-I3dU-25" value="" style="endArrow=none;html=1;rounded=0;exitX=1;exitY=0.5;exitDx=0;exitDy=0;entryX=0;entryY=0.5;entryDx=0;entryDy=0;" parent="1" source="CNnCSRYlt05HZWI-I3dU-10" target="CNnCSRYlt05HZWI-I3dU-29" edge="1">
          <mxGeometry relative="1" as="geometry">
            <mxPoint x="390" y="259.40999999999997" as="sourcePoint" />
            <mxPoint x="470" y="259" as="targetPoint" />
          </mxGeometry>
        </mxCell>
        <mxCell id="CNnCSRYlt05HZWI-I3dU-26" value="1" style="resizable=0;html=1;whiteSpace=wrap;align=left;verticalAlign=bottom;" parent="CNnCSRYlt05HZWI-I3dU-25" connectable="0" vertex="1">
          <mxGeometry x="-1" relative="1" as="geometry">
            <mxPoint x="5" y="2" as="offset" />
          </mxGeometry>
        </mxCell>
        <mxCell id="CNnCSRYlt05HZWI-I3dU-27" value="" style="endArrow=none;html=1;rounded=0;entryX=0;entryY=0.5;entryDx=0;entryDy=0;exitX=1;exitY=0.5;exitDx=0;exitDy=0;" parent="1" source="CNnCSRYlt05HZWI-I3dU-29" target="CNnCSRYlt05HZWI-I3dU-17" edge="1">
          <mxGeometry relative="1" as="geometry">
            <mxPoint x="520" y="259.40999999999997" as="sourcePoint" />
            <mxPoint x="632" y="264" as="targetPoint" />
          </mxGeometry>
        </mxCell>
        <mxCell id="CNnCSRYlt05HZWI-I3dU-28" value="M" style="resizable=0;html=1;whiteSpace=wrap;align=right;verticalAlign=bottom;" parent="CNnCSRYlt05HZWI-I3dU-27" connectable="0" vertex="1">
          <mxGeometry x="1" relative="1" as="geometry">
            <mxPoint x="-5" y="1" as="offset" />
          </mxGeometry>
        </mxCell>
        <mxCell id="CNnCSRYlt05HZWI-I3dU-29" value="has" style="rhombus;whiteSpace=wrap;html=1;" parent="1" vertex="1">
          <mxGeometry x="454" y="140" width="90" height="80" as="geometry" />
        </mxCell>
        <mxCell id="CNnCSRYlt05HZWI-I3dU-30" value="IS A" style="triangle;whiteSpace=wrap;html=1;direction=west;" parent="1" vertex="1">
          <mxGeometry x="807" y="147" width="51.75" height="69" as="geometry" />
        </mxCell>
        <mxCell id="CNnCSRYlt05HZWI-I3dU-31" value="" style="endArrow=none;html=1;rounded=0;exitX=1;exitY=0.507;exitDx=0;exitDy=0;entryX=1;entryY=0.5;entryDx=0;entryDy=0;exitPerimeter=0;" parent="1" source="CNnCSRYlt05HZWI-I3dU-30" target="CNnCSRYlt05HZWI-I3dU-17" edge="1">
          <mxGeometry relative="1" as="geometry">
            <mxPoint x="651" y="130" as="sourcePoint" />
            <mxPoint x="651" y="171" as="targetPoint" />
          </mxGeometry>
        </mxCell>
        <mxCell id="CNnCSRYlt05HZWI-I3dU-32" value="" style="endArrow=none;html=1;rounded=0;exitX=0.03;exitY=0.016;exitDx=0;exitDy=0;exitPerimeter=0;entryX=0;entryY=0.5;entryDx=0;entryDy=0;" parent="1" source="CNnCSRYlt05HZWI-I3dU-30" target="CNnCSRYlt05HZWI-I3dU-34" edge="1">
          <mxGeometry relative="1" as="geometry">
            <mxPoint x="817" y="192" as="sourcePoint" />
            <mxPoint x="907" y="250" as="targetPoint" />
          </mxGeometry>
        </mxCell>
        <mxCell id="CNnCSRYlt05HZWI-I3dU-33" value="" style="endArrow=none;html=1;rounded=0;exitX=0.003;exitY=1;exitDx=0;exitDy=0;exitPerimeter=0;entryX=0;entryY=0.5;entryDx=0;entryDy=0;" parent="1" source="CNnCSRYlt05HZWI-I3dU-30" target="CNnCSRYlt05HZWI-I3dU-35" edge="1">
          <mxGeometry relative="1" as="geometry">
            <mxPoint x="871" y="227" as="sourcePoint" />
            <mxPoint x="897" y="120" as="targetPoint" />
          </mxGeometry>
        </mxCell>
        <mxCell id="CNnCSRYlt05HZWI-I3dU-34" value="currentAcc" style="whiteSpace=wrap;html=1;" parent="1" vertex="1">
          <mxGeometry x="907" y="230" width="120" height="40" as="geometry" />
        </mxCell>
        <mxCell id="CNnCSRYlt05HZWI-I3dU-35" value="savingAcc" style="whiteSpace=wrap;html=1;" parent="1" vertex="1">
          <mxGeometry x="907" y="97" width="120" height="40" as="geometry" />
        </mxCell>
        <mxCell id="CNnCSRYlt05HZWI-I3dU-58" value="associates" style="rhombus;whiteSpace=wrap;html=1;" parent="1" vertex="1">
          <mxGeometry x="455" y="541" width="90" height="80" as="geometry" />
        </mxCell>
        <mxCell id="CNnCSRYlt05HZWI-I3dU-59" value="" style="endArrow=none;html=1;rounded=0;entryX=0;entryY=0.5;entryDx=0;entryDy=0;exitX=1;exitY=0.5;exitDx=0;exitDy=0;" parent="1" source="CNnCSRYlt05HZWI-I3dU-103" target="CNnCSRYlt05HZWI-I3dU-58" edge="1">
          <mxGeometry relative="1" as="geometry">
            <mxPoint x="358.91999999999985" y="574.8399999999999" as="sourcePoint" />
            <mxPoint x="367" y="203.59" as="targetPoint" />
          </mxGeometry>
        </mxCell>
        <mxCell id="CNnCSRYlt05HZWI-I3dU-60" value="1" style="resizable=0;html=1;whiteSpace=wrap;align=left;verticalAlign=bottom;" parent="CNnCSRYlt05HZWI-I3dU-59" connectable="0" vertex="1">
          <mxGeometry x="-1" relative="1" as="geometry">
            <mxPoint x="2" y="20" as="offset" />
          </mxGeometry>
        </mxCell>
        <mxCell id="CNnCSRYlt05HZWI-I3dU-61" value="" style="endArrow=none;html=1;rounded=0;exitX=1;exitY=0.5;exitDx=0;exitDy=0;entryX=0;entryY=0.5;entryDx=0;entryDy=0;" parent="1" source="CNnCSRYlt05HZWI-I3dU-58" target="CNnCSRYlt05HZWI-I3dU-89" edge="1">
          <mxGeometry relative="1" as="geometry">
            <mxPoint x="307" y="381.82" as="sourcePoint" />
            <mxPoint x="640.5599999999997" y="574.6400000000001" as="targetPoint" />
          </mxGeometry>
        </mxCell>
        <mxCell id="CNnCSRYlt05HZWI-I3dU-62" value="M" style="resizable=0;html=1;whiteSpace=wrap;align=right;verticalAlign=bottom;" parent="CNnCSRYlt05HZWI-I3dU-61" connectable="0" vertex="1">
          <mxGeometry x="1" relative="1" as="geometry">
            <mxPoint x="-8" y="-2" as="offset" />
          </mxGeometry>
        </mxCell>
        <mxCell id="CNnCSRYlt05HZWI-I3dU-89" value="Customer" style="whiteSpace=wrap;html=1;" parent="1" vertex="1">
          <mxGeometry x="641" y="561" width="120" height="40" as="geometry" />
        </mxCell>
        <mxCell id="CNnCSRYlt05HZWI-I3dU-90" value="cID" style="ellipse;whiteSpace=wrap;html=1;fontStyle=4" parent="1" vertex="1">
          <mxGeometry x="807" y="480" width="120" height="40" as="geometry" />
        </mxCell>
        <mxCell id="CNnCSRYlt05HZWI-I3dU-91" value="cName" style="ellipse;whiteSpace=wrap;html=1;" parent="1" vertex="1">
          <mxGeometry x="805" y="529" width="120" height="40" as="geometry" />
        </mxCell>
        <mxCell id="CNnCSRYlt05HZWI-I3dU-92" value="" style="endArrow=none;html=1;rounded=0;entryX=1;entryY=0;entryDx=0;entryDy=0;exitX=0;exitY=0.5;exitDx=0;exitDy=0;" parent="1" source="CNnCSRYlt05HZWI-I3dU-90" target="CNnCSRYlt05HZWI-I3dU-89" edge="1">
          <mxGeometry relative="1" as="geometry">
            <mxPoint x="601" y="460.40999999999997" as="sourcePoint" />
            <mxPoint x="761" y="460.40999999999997" as="targetPoint" />
          </mxGeometry>
        </mxCell>
        <mxCell id="CNnCSRYlt05HZWI-I3dU-93" value="" style="endArrow=none;html=1;rounded=0;entryX=1;entryY=0;entryDx=0;entryDy=0;exitX=0;exitY=0.5;exitDx=0;exitDy=0;" parent="1" source="CNnCSRYlt05HZWI-I3dU-91" target="CNnCSRYlt05HZWI-I3dU-89" edge="1">
          <mxGeometry relative="1" as="geometry">
            <mxPoint x="611" y="471" as="sourcePoint" />
            <mxPoint x="651" y="571" as="targetPoint" />
          </mxGeometry>
        </mxCell>
        <mxCell id="CNnCSRYlt05HZWI-I3dU-94" value="cAddress" style="ellipse;whiteSpace=wrap;html=1;" parent="1" vertex="1">
          <mxGeometry x="801" y="589" width="120" height="40" as="geometry" />
        </mxCell>
        <mxCell id="CNnCSRYlt05HZWI-I3dU-95" value="" style="endArrow=none;html=1;rounded=0;entryX=1;entryY=1;entryDx=0;entryDy=0;exitX=0;exitY=0.5;exitDx=0;exitDy=0;" parent="1" source="CNnCSRYlt05HZWI-I3dU-94" target="CNnCSRYlt05HZWI-I3dU-89" edge="1">
          <mxGeometry relative="1" as="geometry">
            <mxPoint x="601" y="558" as="sourcePoint" />
            <mxPoint x="631" y="648" as="targetPoint" />
          </mxGeometry>
        </mxCell>
        <mxCell id="CNnCSRYlt05HZWI-I3dU-96" value="cTelephone" style="ellipse;shape=doubleEllipse;whiteSpace=wrap;html=1;" parent="1" vertex="1">
          <mxGeometry x="815" y="648" width="110" height="40" as="geometry" />
        </mxCell>
        <mxCell id="CNnCSRYlt05HZWI-I3dU-97" value="" style="endArrow=none;html=1;rounded=0;entryX=1;entryY=1;entryDx=0;entryDy=0;exitX=0;exitY=0.5;exitDx=0;exitDy=0;" parent="1" source="CNnCSRYlt05HZWI-I3dU-96" target="CNnCSRYlt05HZWI-I3dU-89" edge="1">
          <mxGeometry relative="1" as="geometry">
            <mxPoint x="653" y="668" as="sourcePoint" />
            <mxPoint x="625" y="648" as="targetPoint" />
          </mxGeometry>
        </mxCell>
        <mxCell id="CNnCSRYlt05HZWI-I3dU-98" value="has" style="rhombus;whiteSpace=wrap;html=1;" parent="1" vertex="1">
          <mxGeometry x="655" y="338" width="90" height="80" as="geometry" />
        </mxCell>
        <mxCell id="CNnCSRYlt05HZWI-I3dU-103" value="Employee" style="whiteSpace=wrap;html=1;" parent="1" vertex="1">
          <mxGeometry x="240" y="559" width="120" height="40" as="geometry" />
        </mxCell>
        <mxCell id="CNnCSRYlt05HZWI-I3dU-104" value="empName" style="ellipse;whiteSpace=wrap;html=1;" parent="1" vertex="1">
          <mxGeometry x="80" y="488" width="120" height="40" as="geometry" />
        </mxCell>
        <mxCell id="CNnCSRYlt05HZWI-I3dU-105" value="empAddress" style="ellipse;whiteSpace=wrap;html=1;" parent="1" vertex="1">
          <mxGeometry x="80" y="559" width="120" height="40" as="geometry" />
        </mxCell>
        <mxCell id="CNnCSRYlt05HZWI-I3dU-106" value="" style="endArrow=none;html=1;rounded=0;entryX=1;entryY=0.5;entryDx=0;entryDy=0;exitX=0;exitY=0.5;exitDx=0;exitDy=0;" parent="1" source="CNnCSRYlt05HZWI-I3dU-103" target="CNnCSRYlt05HZWI-I3dU-105" edge="1">
          <mxGeometry relative="1" as="geometry">
            <mxPoint x="380" y="470" as="sourcePoint" />
            <mxPoint x="430" y="410" as="targetPoint" />
          </mxGeometry>
        </mxCell>
        <mxCell id="CNnCSRYlt05HZWI-I3dU-107" value="" style="endArrow=none;html=1;rounded=0;entryX=1;entryY=0.5;entryDx=0;entryDy=0;exitX=0;exitY=1;exitDx=0;exitDy=0;" parent="1" source="CNnCSRYlt05HZWI-I3dU-103" target="CNnCSRYlt05HZWI-I3dU-112" edge="1">
          <mxGeometry relative="1" as="geometry">
            <mxPoint x="241" y="602" as="sourcePoint" />
            <mxPoint x="430" y="723.9999999999998" as="targetPoint" />
          </mxGeometry>
        </mxCell>
        <mxCell id="CNnCSRYlt05HZWI-I3dU-108" value="&lt;u&gt;empNO&lt;/u&gt;" style="ellipse;whiteSpace=wrap;html=1;" parent="1" vertex="1">
          <mxGeometry x="78" y="432" width="120" height="40" as="geometry" />
        </mxCell>
        <mxCell id="CNnCSRYlt05HZWI-I3dU-109" value="" style="endArrow=none;html=1;rounded=0;entryX=1;entryY=0.5;entryDx=0;entryDy=0;exitX=0;exitY=0;exitDx=0;exitDy=0;" parent="1" source="CNnCSRYlt05HZWI-I3dU-103" target="CNnCSRYlt05HZWI-I3dU-108" edge="1">
          <mxGeometry relative="1" as="geometry">
            <mxPoint x="338" y="510" as="sourcePoint" />
            <mxPoint x="408" y="450" as="targetPoint" />
          </mxGeometry>
        </mxCell>
        <mxCell id="CNnCSRYlt05HZWI-I3dU-111" value="" style="endArrow=none;html=1;rounded=0;entryX=0;entryY=1;entryDx=0;entryDy=0;exitX=1;exitY=0.5;exitDx=0;exitDy=0;" parent="1" source="CNnCSRYlt05HZWI-I3dU-128" target="CNnCSRYlt05HZWI-I3dU-103" edge="1">
          <mxGeometry relative="1" as="geometry">
            <mxPoint x="189" y="655" as="sourcePoint" />
            <mxPoint x="601" y="604" as="targetPoint" />
          </mxGeometry>
        </mxCell>
        <mxCell id="CNnCSRYlt05HZWI-I3dU-112" value="lengthEmp" style="ellipse;whiteSpace=wrap;html=1;align=center;dashed=1;" parent="1" vertex="1">
          <mxGeometry x="79" y="695" width="100" height="40" as="geometry" />
        </mxCell>
        <mxCell id="CNnCSRYlt05HZWI-I3dU-116" value="has" style="shape=rhombus;perimeter=rhombusPerimeter;whiteSpace=wrap;html=1;align=center;" parent="1" vertex="1">
          <mxGeometry x="258" y="298" width="86" height="80" as="geometry" />
        </mxCell>
        <mxCell id="CNnCSRYlt05HZWI-I3dU-117" value="empStartDate" style="ellipse;whiteSpace=wrap;html=1;" parent="1" vertex="1">
          <mxGeometry x="91" y="318" width="120" height="40" as="geometry" />
        </mxCell>
        <mxCell id="CNnCSRYlt05HZWI-I3dU-118" value="" style="endArrow=none;html=1;rounded=0;entryX=1;entryY=0.5;entryDx=0;entryDy=0;exitX=0;exitY=0;exitDx=0;exitDy=0;" parent="1" source="CNnCSRYlt05HZWI-I3dU-103" target="CNnCSRYlt05HZWI-I3dU-104" edge="1">
          <mxGeometry relative="1" as="geometry">
            <mxPoint x="-88" y="559" as="sourcePoint" />
            <mxPoint x="204" y="462" as="targetPoint" />
          </mxGeometry>
        </mxCell>
        <mxCell id="CNnCSRYlt05HZWI-I3dU-119" value="" style="endArrow=none;html=1;rounded=0;entryX=0;entryY=0.5;entryDx=0;entryDy=0;exitX=1;exitY=0.5;exitDx=0;exitDy=0;" parent="1" source="CNnCSRYlt05HZWI-I3dU-117" target="CNnCSRYlt05HZWI-I3dU-116" edge="1">
          <mxGeometry relative="1" as="geometry">
            <mxPoint x="240" y="370" as="sourcePoint" />
            <mxPoint x="464" y="190" as="targetPoint" />
          </mxGeometry>
        </mxCell>
        <mxCell id="CNnCSRYlt05HZWI-I3dU-121" value="IS A" style="triangle;whiteSpace=wrap;html=1;direction=north;" parent="1" vertex="1">
          <mxGeometry x="264.375" y="681.625" width="69" height="51.75" as="geometry" />
        </mxCell>
        <mxCell id="CNnCSRYlt05HZWI-I3dU-122" value="" style="endArrow=none;html=1;rounded=0;exitX=1;exitY=0.507;exitDx=0;exitDy=0;entryX=0.5;entryY=1;entryDx=0;entryDy=0;exitPerimeter=0;" parent="1" source="CNnCSRYlt05HZWI-I3dU-121" target="CNnCSRYlt05HZWI-I3dU-103" edge="1">
          <mxGeometry relative="1" as="geometry">
            <mxPoint x="265" y="668" as="sourcePoint" />
            <mxPoint x="375" y="719" as="targetPoint" />
          </mxGeometry>
        </mxCell>
        <mxCell id="CNnCSRYlt05HZWI-I3dU-123" value="" style="endArrow=none;html=1;rounded=0;exitX=0.03;exitY=0.016;exitDx=0;exitDy=0;exitPerimeter=0;entryX=0.5;entryY=0;entryDx=0;entryDy=0;" parent="1" source="CNnCSRYlt05HZWI-I3dU-121" target="CNnCSRYlt05HZWI-I3dU-125" edge="1">
          <mxGeometry relative="1" as="geometry">
            <mxPoint x="431" y="730" as="sourcePoint" />
            <mxPoint x="521" y="788" as="targetPoint" />
          </mxGeometry>
        </mxCell>
        <mxCell id="CNnCSRYlt05HZWI-I3dU-124" value="" style="endArrow=none;html=1;rounded=0;exitX=0.003;exitY=1;exitDx=0;exitDy=0;exitPerimeter=0;entryX=0.5;entryY=0;entryDx=0;entryDy=0;" parent="1" source="CNnCSRYlt05HZWI-I3dU-121" target="CNnCSRYlt05HZWI-I3dU-126" edge="1">
          <mxGeometry relative="1" as="geometry">
            <mxPoint x="485" y="765" as="sourcePoint" />
            <mxPoint x="511" y="658" as="targetPoint" />
          </mxGeometry>
        </mxCell>
        <mxCell id="CNnCSRYlt05HZWI-I3dU-125" value="loanOfficer" style="whiteSpace=wrap;html=1;" parent="1" vertex="1">
          <mxGeometry x="155" y="799" width="120" height="40" as="geometry" />
        </mxCell>
        <mxCell id="CNnCSRYlt05HZWI-I3dU-126" value="personalBanker" style="whiteSpace=wrap;html=1;direction=east;" parent="1" vertex="1">
          <mxGeometry x="316" y="798" width="120" height="40" as="geometry" />
        </mxCell>
        <mxCell id="CNnCSRYlt05HZWI-I3dU-127" value="M" style="resizable=0;html=1;whiteSpace=wrap;align=right;verticalAlign=bottom;" parent="1" connectable="0" vertex="1">
          <mxGeometry x="644.8620689655172" y="589.9999999999998" as="geometry">
            <mxPoint x="-328" y="-35" as="offset" />
          </mxGeometry>
        </mxCell>
        <mxCell id="CNnCSRYlt05HZWI-I3dU-128" value="empTelephone" style="ellipse;whiteSpace=wrap;html=1;" parent="1" vertex="1">
          <mxGeometry x="80" y="626" width="120" height="40" as="geometry" />
        </mxCell>
        <mxCell id="CNnCSRYlt05HZWI-I3dU-129" value="branchAddress" style="ellipse;whiteSpace=wrap;html=1;" parent="1" vertex="1">
          <mxGeometry x="78" y="186" width="120" height="44" as="geometry" />
        </mxCell>
        <mxCell id="CNnCSRYlt05HZWI-I3dU-130" value="" style="endArrow=none;html=1;rounded=0;exitX=0;exitY=1;exitDx=0;exitDy=0;entryX=1;entryY=0.5;entryDx=0;entryDy=0;" parent="1" source="CNnCSRYlt05HZWI-I3dU-10" target="CNnCSRYlt05HZWI-I3dU-129" edge="1">
          <mxGeometry relative="1" as="geometry">
            <mxPoint x="250" y="190" as="sourcePoint" />
            <mxPoint x="230" y="190" as="targetPoint" />
          </mxGeometry>
        </mxCell>
        <mxCell id="CNnCSRYlt05HZWI-I3dU-131" value="branchTelephone" style="ellipse;whiteSpace=wrap;html=1;" parent="1" vertex="1">
          <mxGeometry x="80" y="240" width="120" height="44" as="geometry" />
        </mxCell>
        <mxCell id="CNnCSRYlt05HZWI-I3dU-132" value="" style="endArrow=none;html=1;rounded=0;exitX=0;exitY=1;exitDx=0;exitDy=0;entryX=1;entryY=0.5;entryDx=0;entryDy=0;" parent="1" source="CNnCSRYlt05HZWI-I3dU-10" target="CNnCSRYlt05HZWI-I3dU-131" edge="1">
          <mxGeometry relative="1" as="geometry">
            <mxPoint x="240" y="261" as="sourcePoint" />
            <mxPoint x="220" y="261" as="targetPoint" />
          </mxGeometry>
        </mxCell>
        <mxCell id="7LkSVH_sdTNkLVu3oXNm-1" value="" style="shape=link;html=1;rounded=0;exitX=0.5;exitY=1;exitDx=0;exitDy=0;entryX=0.5;entryY=0;entryDx=0;entryDy=0;" edge="1" parent="1" source="CNnCSRYlt05HZWI-I3dU-10" target="CNnCSRYlt05HZWI-I3dU-116">
          <mxGeometry width="100" relative="1" as="geometry">
            <mxPoint x="410" y="330" as="sourcePoint" />
            <mxPoint x="630" y="430" as="targetPoint" />
          </mxGeometry>
        </mxCell>
        <mxCell id="7LkSVH_sdTNkLVu3oXNm-2" value="1" style="resizable=0;html=1;whiteSpace=wrap;align=left;verticalAlign=bottom;" connectable="0" vertex="1" parent="1">
          <mxGeometry x="368" y="190" as="geometry">
            <mxPoint x="-59" y="32" as="offset" />
          </mxGeometry>
        </mxCell>
        <mxCell id="7LkSVH_sdTNkLVu3oXNm-3" value="" style="shape=link;html=1;rounded=0;exitX=0.5;exitY=1;exitDx=0;exitDy=0;entryX=0.5;entryY=0;entryDx=0;entryDy=0;" edge="1" parent="1" source="CNnCSRYlt05HZWI-I3dU-116" target="CNnCSRYlt05HZWI-I3dU-103">
          <mxGeometry width="100" relative="1" as="geometry">
            <mxPoint x="400" y="390" as="sourcePoint" />
            <mxPoint x="401" y="488" as="targetPoint" />
          </mxGeometry>
        </mxCell>
        <mxCell id="7LkSVH_sdTNkLVu3oXNm-4" value="" style="shape=link;html=1;rounded=0;exitX=0.5;exitY=1;exitDx=0;exitDy=0;" edge="1" parent="1" source="CNnCSRYlt05HZWI-I3dU-17" target="CNnCSRYlt05HZWI-I3dU-98">
          <mxGeometry width="100" relative="1" as="geometry">
            <mxPoint x="655" y="240" as="sourcePoint" />
            <mxPoint x="656" y="338" as="targetPoint" />
          </mxGeometry>
        </mxCell>
        <mxCell id="7LkSVH_sdTNkLVu3oXNm-5" value="N" style="resizable=0;html=1;whiteSpace=wrap;align=right;verticalAlign=bottom;" connectable="0" vertex="1" parent="1">
          <mxGeometry x="726.9999755498234" y="247.99650362473812" as="geometry">
            <mxPoint x="-6" y="-26" as="offset" />
          </mxGeometry>
        </mxCell>
        <mxCell id="7LkSVH_sdTNkLVu3oXNm-6" value="" style="shape=link;html=1;rounded=0;exitX=0.5;exitY=1;exitDx=0;exitDy=0;entryX=0.5;entryY=0;entryDx=0;entryDy=0;" edge="1" parent="1" source="CNnCSRYlt05HZWI-I3dU-98" target="CNnCSRYlt05HZWI-I3dU-89">
          <mxGeometry width="100" relative="1" as="geometry">
            <mxPoint x="702" y="432" as="sourcePoint" />
            <mxPoint x="740" y="520" as="targetPoint" />
          </mxGeometry>
        </mxCell>
        <mxCell id="7LkSVH_sdTNkLVu3oXNm-7" value="M" style="resizable=0;html=1;whiteSpace=wrap;align=right;verticalAlign=bottom;" connectable="0" vertex="1" parent="1">
          <mxGeometry x="726.9999755498234" y="578.9965036247381" as="geometry">
            <mxPoint x="-6" y="-26" as="offset" />
          </mxGeometry>
        </mxCell>
      </root>
    </mxGraphModel>
  </diagram>
</mxfile>
